<?xml version="1.0" encoding="utf-8"?>
<!-- Generator: Adobe Illustrator 16.0.0, SVG Export Plug-In . SVG Version: 6.00 Build 0)  -->
<!DOCTYPE svg PUBLIC "-//W3C//DTD SVG 1.1//EN" "http://www.w3.org/Graphics/SVG/1.1/DTD/svg11.dtd">
<svg version="1.1" id="Laag_1" xmlns="http://www.w3.org/2000/svg" xmlns:xlink="http://www.w3.org/1999/xlink" x="0px" y="0px"
	 width="213px" height="50.002px" viewBox="0 0 213 50.002" enable-background="new 0 0 213 50.002" xml:space="preserve">
<path fill-rule="evenodd" clip-rule="evenodd" d="M32.87,28.52V5.19c0-1.78-0.09-2.81,3.63-2.81V0.85l-4.82,0.08h-3.37l-3.89-0.08
	v1.53c3.29,0,3.63,0.6,3.63,3.07v10.13H8.7V5.53c0-2.12-0.08-3.15,3.55-3.15V0.85L8.53,0.93H5.24L0.17,0.85v1.53
	c3.21,0,3.72,0.6,3.72,3.24v22.73c0,3.06-0.51,3.83-3.89,3.83v1.53l4.39-0.17H7.6l4.74,0.17v-1.53c-3.3,0-3.64-0.85-3.64-4V17.96
	h19.35v10.56c0,3.15-0.51,3.66-3.29,3.66v1.53l4.22-0.17h3.21l4.48,0.17v-1.53C33.12,32.18,32.87,31.33,32.87,28.52z M97.33,0.93
	l-4.14-0.08v1.53c3.55,0,3.98,1.11,2.79,3.83l-8.53,20.52L79.84,5.45c-1.01-2.81-0.08-3.07,2.71-3.07V0.85l-4.48,0.08H75.2
	l-4.9-0.08l-0.09,1.53c3.3,0,3.72,1.62,4.82,4.43l9.72,25.37C79.93,43.5,77.14,48.35,72.83,48.1v1.62
	c6.42,1.95,10.31-6.47,15.13-17.54L99.19,6.13c1.44-3.41,2.2-3.75,3.97-3.75V0.85l-3.38,0.08H97.33z M171.18,0.93l-4.14-0.08v1.53
	c3.38,0,4.48,1.03,4.48,4.51v17.78h-0.73v0.23c-3.82-4.79-19.23-21.31-21.33-23.97h-3.97l-4.22-0.08v1.53
	c4.31,0,5.24,0.94,5.24,5.54v17.36c0,5.88-0.59,6.9-4.31,6.9v1.53l4.39-0.17h3.21l4.39,0.17v-1.53c-4.05,0-4.73-0.85-4.73-6.64V8
	c1.78,2.89,20.2,22.73,22.82,25.88h2.28V7.07c0-3.75,0.42-4.69,3.97-4.69V0.85l-4.06,0.08H171.18z M59.82,27.84
	c-11.07,7.32-13.86,1.19-13.77-2.39c0.08-4.34,4.98-7.23,13.77-7.32V27.84z M67.26,31.58c-2.54,0.51-2.45-2.21-2.45-5.28V7.92
	c0-4.94-2.96-7.5-7.86-7.41C51.37,0.59,45.8,3.49,43.43,6.64c-1.1,1.53-1.86,4.6,0.25,4.6c0.68,0,3.38-0.77,3.38-1.79
	c0-3.32,3.21-6.64,8.37-6.64c3.38,0,4.31,1.87,4.31,6.72v6.3c-12.42,0-18.59,5.2-19.02,10.56c-0.5,5.02,5.33,13.62,19.18,3.75
	c0,2.89,2.45,4.34,5.16,4.34c2.45,0,4.22-1.53,6.25-3.24l-0.93-1.19C69.28,30.99,68.02,31.5,67.26,31.58z M122.51,32.27
	c-6.42,0.85-12.42-5.2-13.43-13.54c-1.1-8.35,3.12-15.66,9.46-16.52c6.42-0.85,12.42,5.2,13.44,13.45
	C133.07,24.01,128.85,31.41,122.51,32.27z M120.49,0c-9.47,0-17.07,7.66-17.07,17.2c0,9.53,7.6,17.28,17.07,17.28
	c9.54,0,17.15-7.75,17.15-17.28C137.64,7.66,130.03,0,120.49,0z M201.51,27.84c-11.07,7.32-13.86,1.19-13.77-2.39
	c0.08-4.34,4.98-7.23,13.77-7.32V27.84z M208.95,31.58c-2.54,0.51-2.46-2.21-2.46-5.28V7.92c0-4.94-2.95-7.5-7.85-7.41
	c-5.58,0.08-11.16,2.98-13.52,6.13c-1.1,1.53-1.86,4.6,0.25,4.6c0.68,0,3.38-0.77,3.38-1.79c0-3.32,3.21-6.64,8.37-6.64
	c3.38,0,4.31,1.87,4.31,6.72v6.3c-12.42,0-18.59,5.2-19.01,10.56c-0.51,5.02,5.32,13.62,19.18,3.75c0,2.89,2.45,4.34,5.15,4.34
	c2.45,0,4.22-1.53,6.25-3.24l-0.93-1.19C210.97,30.99,209.71,31.5,208.95,31.58z"/>
</svg>
